<svg xmlns="http://www.w3.org/2000/svg" xmlns:xlink="http://www.w3.org/1999/xlink" width="300" zoomAndPan="magnify" viewBox="0 0 224.87999 54.75" height="73" preserveAspectRatio="xMidYMid meet" version="1.0"><defs><g/><clipPath id="d89952a67f"><path d="M 98 2 L 129 2 L 129 32 L 98 32 Z M 98 2 " clip-rule="nonzero"/></clipPath><clipPath id="30d5bb378a"><path d="M 116.496094 37.246094 L 93.152344 19.84375 L 110.558594 -3.5 L 133.902344 13.902344 Z M 116.496094 37.246094 " clip-rule="nonzero"/></clipPath><clipPath id="efcb312285"><path d="M 116.496094 37.246094 L 93.152344 19.84375 L 110.558594 -3.5 L 133.902344 13.902344 Z M 116.496094 37.246094 " clip-rule="nonzero"/></clipPath><clipPath id="2e90528c78"><path d="M 116.496094 37.246094 L 93.152344 19.84375 L 110.558594 -3.5 L 133.902344 13.902344 Z M 116.496094 37.246094 " clip-rule="nonzero"/></clipPath><clipPath id="36008bb7f4"><path d="M 101.855469 8.171875 C 102.425781 7.402344 103.066406 6.699219 103.777344 6.058594 C 104.488281 5.421875 105.253906 4.855469 106.074219 4.367188 C 106.894531 3.875 107.757812 3.472656 108.65625 3.152344 C 109.558594 2.832031 110.480469 2.605469 111.425781 2.464844 C 112.375 2.328125 113.324219 2.285156 114.277344 2.332031 C 115.234375 2.382812 116.175781 2.523438 117.101562 2.757812 C 118.027344 2.992188 118.921875 3.316406 119.785156 3.726562 C 120.648438 4.136719 121.464844 4.628906 122.230469 5.199219 C 122.996094 5.773438 123.699219 6.414062 124.339844 7.121094 C 124.980469 7.832031 125.542969 8.597656 126.035156 9.417969 C 126.523438 10.238281 126.925781 11.101562 127.246094 12 C 127.566406 12.902344 127.796875 13.824219 127.933594 14.773438 C 128.070312 15.71875 128.117188 16.667969 128.066406 17.621094 C 128.015625 18.578125 127.875 19.519531 127.640625 20.445312 C 127.40625 21.371094 127.082031 22.265625 126.671875 23.128906 C 126.261719 23.992188 125.769531 24.808594 125.199219 25.574219 C 124.628906 26.339844 123.988281 27.042969 123.277344 27.683594 C 122.566406 28.324219 121.800781 28.886719 120.980469 29.378906 C 120.160156 29.867188 119.296875 30.273438 118.398438 30.589844 C 117.496094 30.910156 116.574219 31.140625 115.628906 31.277344 C 114.683594 31.417969 113.730469 31.460938 112.777344 31.410156 C 111.820312 31.363281 110.882812 31.21875 109.953125 30.984375 C 109.027344 30.75 108.132812 30.429688 107.269531 30.015625 C 106.40625 29.605469 105.59375 29.113281 104.824219 28.542969 C 104.058594 27.972656 103.355469 27.332031 102.714844 26.621094 C 102.074219 25.910156 101.511719 25.144531 101.023438 24.324219 C 100.53125 23.503906 100.128906 22.644531 99.808594 21.742188 C 99.488281 20.839844 99.257812 19.917969 99.121094 18.972656 C 98.984375 18.027344 98.9375 17.074219 98.988281 16.121094 C 99.039062 15.167969 99.179688 14.226562 99.414062 13.300781 C 99.648438 12.371094 99.972656 11.476562 100.382812 10.613281 C 100.792969 9.75 101.285156 8.9375 101.855469 8.171875 Z M 101.855469 8.171875 " clip-rule="nonzero"/></clipPath><linearGradient x1="1745.118407" gradientTransform="matrix(0.135648, -0.181944, 0.181944, 0.135648, -179.943353, 317.541392)" y1="244.834" x2="1925.033505" gradientUnits="userSpaceOnUse" y2="244.834" id="d2246e308d"><stop stop-opacity="1" stop-color="rgb(76.899719%, 0%, 100%)" offset="0"/><stop stop-opacity="1" stop-color="rgb(76.899719%, 0%, 100%)" offset="0.125"/><stop stop-opacity="1" stop-color="rgb(76.899719%, 0%, 100%)" offset="0.140625"/><stop stop-opacity="1" stop-color="rgb(76.678467%, 0.447083%, 100%)" offset="0.144531"/><stop stop-opacity="1" stop-color="rgb(76.45874%, 0.894165%, 100%)" offset="0.148438"/><stop stop-opacity="1" stop-color="rgb(76.112366%, 1.594543%, 100%)" offset="0.152344"/><stop stop-opacity="1" stop-color="rgb(75.767517%, 2.296448%, 100%)" offset="0.15625"/><stop stop-opacity="1" stop-color="rgb(75.422668%, 2.996826%, 100%)" offset="0.160156"/><stop stop-opacity="1" stop-color="rgb(75.07782%, 3.697205%, 100%)" offset="0.164062"/><stop stop-opacity="1" stop-color="rgb(74.732971%, 4.397583%, 100%)" offset="0.167969"/><stop stop-opacity="1" stop-color="rgb(74.388123%, 5.097961%, 100%)" offset="0.171875"/><stop stop-opacity="1" stop-color="rgb(74.041748%, 5.79834%, 100%)" offset="0.175781"/><stop stop-opacity="1" stop-color="rgb(73.696899%, 6.498718%, 100%)" offset="0.179688"/><stop stop-opacity="1" stop-color="rgb(73.352051%, 7.199097%, 100%)" offset="0.183594"/><stop stop-opacity="1" stop-color="rgb(73.007202%, 7.899475%, 100%)" offset="0.1875"/><stop stop-opacity="1" stop-color="rgb(72.662354%, 8.599854%, 100%)" offset="0.191406"/><stop stop-opacity="1" stop-color="rgb(72.317505%, 9.300232%, 100%)" offset="0.195313"/><stop stop-opacity="1" stop-color="rgb(71.972656%, 10.00061%, 100%)" offset="0.199219"/><stop stop-opacity="1" stop-color="rgb(71.627808%, 10.700989%, 100%)" offset="0.203125"/><stop stop-opacity="1" stop-color="rgb(71.281433%, 11.401367%, 100%)" offset="0.207031"/><stop stop-opacity="1" stop-color="rgb(70.936584%, 12.101746%, 100%)" offset="0.210938"/><stop stop-opacity="1" stop-color="rgb(70.591736%, 12.802124%, 100%)" offset="0.214844"/><stop stop-opacity="1" stop-color="rgb(70.246887%, 13.502502%, 100%)" offset="0.21875"/><stop stop-opacity="1" stop-color="rgb(69.902039%, 14.202881%, 100%)" offset="0.222656"/><stop stop-opacity="1" stop-color="rgb(69.55719%, 14.903259%, 100%)" offset="0.226563"/><stop stop-opacity="1" stop-color="rgb(69.212341%, 15.603638%, 100%)" offset="0.230469"/><stop stop-opacity="1" stop-color="rgb(68.867493%, 16.305542%, 100%)" offset="0.234375"/><stop stop-opacity="1" stop-color="rgb(68.521118%, 17.00592%, 100%)" offset="0.238281"/><stop stop-opacity="1" stop-color="rgb(68.17627%, 17.706299%, 100%)" offset="0.242188"/><stop stop-opacity="1" stop-color="rgb(67.831421%, 18.406677%, 100%)" offset="0.246094"/><stop stop-opacity="1" stop-color="rgb(67.486572%, 19.107056%, 100%)" offset="0.25"/><stop stop-opacity="1" stop-color="rgb(67.141724%, 19.807434%, 100%)" offset="0.253906"/><stop stop-opacity="1" stop-color="rgb(66.796875%, 20.507812%, 100%)" offset="0.257813"/><stop stop-opacity="1" stop-color="rgb(66.452026%, 21.208191%, 100%)" offset="0.261719"/><stop stop-opacity="1" stop-color="rgb(66.107178%, 21.908569%, 100%)" offset="0.265625"/><stop stop-opacity="1" stop-color="rgb(65.760803%, 22.608948%, 100%)" offset="0.269531"/><stop stop-opacity="1" stop-color="rgb(65.415955%, 23.309326%, 100%)" offset="0.273438"/><stop stop-opacity="1" stop-color="rgb(65.071106%, 24.009705%, 100%)" offset="0.277344"/><stop stop-opacity="1" stop-color="rgb(64.726257%, 24.710083%, 100%)" offset="0.28125"/><stop stop-opacity="1" stop-color="rgb(64.381409%, 25.410461%, 100%)" offset="0.285156"/><stop stop-opacity="1" stop-color="rgb(64.03656%, 26.11084%, 100%)" offset="0.289063"/><stop stop-opacity="1" stop-color="rgb(63.690186%, 26.811218%, 100%)" offset="0.292969"/><stop stop-opacity="1" stop-color="rgb(63.345337%, 27.511597%, 100%)" offset="0.296875"/><stop stop-opacity="1" stop-color="rgb(63.000488%, 28.211975%, 100%)" offset="0.300781"/><stop stop-opacity="1" stop-color="rgb(62.65564%, 28.913879%, 100%)" offset="0.304688"/><stop stop-opacity="1" stop-color="rgb(62.310791%, 29.614258%, 100%)" offset="0.308594"/><stop stop-opacity="1" stop-color="rgb(61.965942%, 30.314636%, 100%)" offset="0.3125"/><stop stop-opacity="1" stop-color="rgb(61.621094%, 31.015015%, 100%)" offset="0.316406"/><stop stop-opacity="1" stop-color="rgb(61.276245%, 31.715393%, 100%)" offset="0.320313"/><stop stop-opacity="1" stop-color="rgb(60.929871%, 32.415771%, 100%)" offset="0.324219"/><stop stop-opacity="1" stop-color="rgb(60.585022%, 33.11615%, 100%)" offset="0.328125"/><stop stop-opacity="1" stop-color="rgb(60.240173%, 33.816528%, 100%)" offset="0.332031"/><stop stop-opacity="1" stop-color="rgb(59.895325%, 34.516907%, 100%)" offset="0.335938"/><stop stop-opacity="1" stop-color="rgb(59.550476%, 35.217285%, 100%)" offset="0.339844"/><stop stop-opacity="1" stop-color="rgb(59.205627%, 35.917664%, 100%)" offset="0.34375"/><stop stop-opacity="1" stop-color="rgb(58.860779%, 36.618042%, 100%)" offset="0.347656"/><stop stop-opacity="1" stop-color="rgb(58.51593%, 37.31842%, 100%)" offset="0.351563"/><stop stop-opacity="1" stop-color="rgb(58.169556%, 38.018799%, 100%)" offset="0.355469"/><stop stop-opacity="1" stop-color="rgb(57.824707%, 38.719177%, 100%)" offset="0.359375"/><stop stop-opacity="1" stop-color="rgb(57.479858%, 39.419556%, 100%)" offset="0.363281"/><stop stop-opacity="1" stop-color="rgb(57.13501%, 40.119934%, 100%)" offset="0.367188"/><stop stop-opacity="1" stop-color="rgb(56.790161%, 40.820312%, 100%)" offset="0.371094"/><stop stop-opacity="1" stop-color="rgb(56.445312%, 41.522217%, 100%)" offset="0.375"/><stop stop-opacity="1" stop-color="rgb(56.098938%, 42.222595%, 100%)" offset="0.378906"/><stop stop-opacity="1" stop-color="rgb(55.754089%, 42.922974%, 100%)" offset="0.382813"/><stop stop-opacity="1" stop-color="rgb(55.409241%, 43.623352%, 100%)" offset="0.386719"/><stop stop-opacity="1" stop-color="rgb(55.064392%, 44.32373%, 100%)" offset="0.390625"/><stop stop-opacity="1" stop-color="rgb(54.719543%, 45.024109%, 100%)" offset="0.394531"/><stop stop-opacity="1" stop-color="rgb(54.374695%, 45.724487%, 100%)" offset="0.398438"/><stop stop-opacity="1" stop-color="rgb(54.029846%, 46.424866%, 100%)" offset="0.402344"/><stop stop-opacity="1" stop-color="rgb(53.684998%, 47.125244%, 100%)" offset="0.40625"/><stop stop-opacity="1" stop-color="rgb(53.338623%, 47.825623%, 100%)" offset="0.410156"/><stop stop-opacity="1" stop-color="rgb(52.993774%, 48.526001%, 100%)" offset="0.414062"/><stop stop-opacity="1" stop-color="rgb(52.648926%, 49.226379%, 100%)" offset="0.417969"/><stop stop-opacity="1" stop-color="rgb(52.304077%, 49.926758%, 100%)" offset="0.421875"/><stop stop-opacity="1" stop-color="rgb(51.959229%, 50.627136%, 100%)" offset="0.425781"/><stop stop-opacity="1" stop-color="rgb(51.61438%, 51.327515%, 100%)" offset="0.429688"/><stop stop-opacity="1" stop-color="rgb(51.269531%, 52.027893%, 100%)" offset="0.433594"/><stop stop-opacity="1" stop-color="rgb(50.924683%, 52.728271%, 100%)" offset="0.4375"/><stop stop-opacity="1" stop-color="rgb(50.578308%, 53.42865%, 100%)" offset="0.441406"/><stop stop-opacity="1" stop-color="rgb(50.233459%, 54.129028%, 100%)" offset="0.445313"/><stop stop-opacity="1" stop-color="rgb(49.888611%, 54.829407%, 100%)" offset="0.449219"/><stop stop-opacity="1" stop-color="rgb(49.543762%, 55.531311%, 100%)" offset="0.453125"/><stop stop-opacity="1" stop-color="rgb(49.198914%, 56.231689%, 100%)" offset="0.457031"/><stop stop-opacity="1" stop-color="rgb(48.854065%, 56.932068%, 100%)" offset="0.460938"/><stop stop-opacity="1" stop-color="rgb(48.509216%, 57.632446%, 100%)" offset="0.464844"/><stop stop-opacity="1" stop-color="rgb(48.164368%, 58.332825%, 100%)" offset="0.46875"/><stop stop-opacity="1" stop-color="rgb(47.817993%, 59.033203%, 100%)" offset="0.472656"/><stop stop-opacity="1" stop-color="rgb(47.473145%, 59.733582%, 100%)" offset="0.476563"/><stop stop-opacity="1" stop-color="rgb(47.128296%, 60.43396%, 100%)" offset="0.480469"/><stop stop-opacity="1" stop-color="rgb(46.783447%, 61.134338%, 100%)" offset="0.484375"/><stop stop-opacity="1" stop-color="rgb(46.438599%, 61.834717%, 100%)" offset="0.488281"/><stop stop-opacity="1" stop-color="rgb(46.09375%, 62.535095%, 100%)" offset="0.492188"/><stop stop-opacity="1" stop-color="rgb(45.747375%, 63.235474%, 100%)" offset="0.496094"/><stop stop-opacity="1" stop-color="rgb(45.402527%, 63.935852%, 100%)" offset="0.5"/><stop stop-opacity="1" stop-color="rgb(45.057678%, 64.63623%, 100%)" offset="0.503906"/><stop stop-opacity="1" stop-color="rgb(44.71283%, 65.336609%, 100%)" offset="0.507812"/><stop stop-opacity="1" stop-color="rgb(44.367981%, 66.036987%, 100%)" offset="0.511719"/><stop stop-opacity="1" stop-color="rgb(44.023132%, 66.737366%, 100%)" offset="0.515625"/><stop stop-opacity="1" stop-color="rgb(43.678284%, 67.437744%, 100%)" offset="0.519531"/><stop stop-opacity="1" stop-color="rgb(43.333435%, 68.139648%, 100%)" offset="0.523437"/><stop stop-opacity="1" stop-color="rgb(42.987061%, 68.840027%, 100%)" offset="0.527344"/><stop stop-opacity="1" stop-color="rgb(42.642212%, 69.540405%, 100%)" offset="0.53125"/><stop stop-opacity="1" stop-color="rgb(42.297363%, 70.240784%, 100%)" offset="0.535156"/><stop stop-opacity="1" stop-color="rgb(41.952515%, 70.941162%, 100%)" offset="0.539062"/><stop stop-opacity="1" stop-color="rgb(41.607666%, 71.641541%, 100%)" offset="0.542969"/><stop stop-opacity="1" stop-color="rgb(41.262817%, 72.341919%, 100%)" offset="0.546875"/><stop stop-opacity="1" stop-color="rgb(40.917969%, 73.042297%, 100%)" offset="0.550781"/><stop stop-opacity="1" stop-color="rgb(40.57312%, 73.742676%, 100%)" offset="0.554688"/><stop stop-opacity="1" stop-color="rgb(40.226746%, 74.443054%, 100%)" offset="0.558594"/><stop stop-opacity="1" stop-color="rgb(39.881897%, 75.143433%, 100%)" offset="0.5625"/><stop stop-opacity="1" stop-color="rgb(39.537048%, 75.843811%, 100%)" offset="0.566406"/><stop stop-opacity="1" stop-color="rgb(39.1922%, 76.544189%, 100%)" offset="0.570312"/><stop stop-opacity="1" stop-color="rgb(38.847351%, 77.244568%, 100%)" offset="0.574219"/><stop stop-opacity="1" stop-color="rgb(38.502502%, 77.944946%, 100%)" offset="0.578125"/><stop stop-opacity="1" stop-color="rgb(38.156128%, 78.645325%, 100%)" offset="0.582031"/><stop stop-opacity="1" stop-color="rgb(37.811279%, 79.345703%, 100%)" offset="0.585938"/><stop stop-opacity="1" stop-color="rgb(37.466431%, 80.046082%, 100%)" offset="0.589844"/><stop stop-opacity="1" stop-color="rgb(37.121582%, 80.747986%, 100%)" offset="0.59375"/><stop stop-opacity="1" stop-color="rgb(36.66687%, 81.140137%, 100%)" offset="0.597656"/><stop stop-opacity="1" stop-color="rgb(36.213684%, 81.533813%, 100%)" offset="0.601563"/><stop stop-opacity="1" stop-color="rgb(35.707092%, 81.781006%, 100%)" offset="0.605469"/><stop stop-opacity="1" stop-color="rgb(35.2005%, 82.028198%, 100%)" offset="0.609375"/><stop stop-opacity="1" stop-color="rgb(34.693909%, 82.275391%, 100%)" offset="0.613281"/><stop stop-opacity="1" stop-color="rgb(34.187317%, 82.522583%, 100%)" offset="0.617188"/><stop stop-opacity="1" stop-color="rgb(33.680725%, 82.76825%, 100%)" offset="0.621094"/><stop stop-opacity="1" stop-color="rgb(33.175659%, 83.015442%, 100%)" offset="0.625"/><stop stop-opacity="1" stop-color="rgb(32.669067%, 83.262634%, 100%)" offset="0.628906"/><stop stop-opacity="1" stop-color="rgb(32.162476%, 83.509827%, 100%)" offset="0.632812"/><stop stop-opacity="1" stop-color="rgb(31.655884%, 83.757019%, 100%)" offset="0.636719"/><stop stop-opacity="1" stop-color="rgb(31.149292%, 84.004211%, 100%)" offset="0.640625"/><stop stop-opacity="1" stop-color="rgb(30.6427%, 84.251404%, 100%)" offset="0.644531"/><stop stop-opacity="1" stop-color="rgb(30.137634%, 84.498596%, 100%)" offset="0.648437"/><stop stop-opacity="1" stop-color="rgb(29.631042%, 84.745789%, 100%)" offset="0.652344"/><stop stop-opacity="1" stop-color="rgb(29.124451%, 84.992981%, 100%)" offset="0.65625"/><stop stop-opacity="1" stop-color="rgb(28.617859%, 85.238647%, 100%)" offset="0.660156"/><stop stop-opacity="1" stop-color="rgb(28.111267%, 85.48584%, 100%)" offset="0.664062"/><stop stop-opacity="1" stop-color="rgb(27.604675%, 85.733032%, 100%)" offset="0.667969"/><stop stop-opacity="1" stop-color="rgb(27.099609%, 85.980225%, 100%)" offset="0.671875"/><stop stop-opacity="1" stop-color="rgb(26.593018%, 86.227417%, 100%)" offset="0.675781"/><stop stop-opacity="1" stop-color="rgb(26.086426%, 86.474609%, 100%)" offset="0.679688"/><stop stop-opacity="1" stop-color="rgb(25.579834%, 86.721802%, 100%)" offset="0.683594"/><stop stop-opacity="1" stop-color="rgb(25.073242%, 86.968994%, 100%)" offset="0.6875"/><stop stop-opacity="1" stop-color="rgb(24.56665%, 87.216187%, 100%)" offset="0.691406"/><stop stop-opacity="1" stop-color="rgb(24.061584%, 87.463379%, 100%)" offset="0.695312"/><stop stop-opacity="1" stop-color="rgb(23.554993%, 87.709045%, 100%)" offset="0.699219"/><stop stop-opacity="1" stop-color="rgb(23.048401%, 87.956238%, 100%)" offset="0.703125"/><stop stop-opacity="1" stop-color="rgb(22.541809%, 88.20343%, 100%)" offset="0.707031"/><stop stop-opacity="1" stop-color="rgb(22.035217%, 88.450623%, 100%)" offset="0.710938"/><stop stop-opacity="1" stop-color="rgb(21.528625%, 88.697815%, 100%)" offset="0.714844"/><stop stop-opacity="1" stop-color="rgb(21.02356%, 88.945007%, 100%)" offset="0.71875"/><stop stop-opacity="1" stop-color="rgb(20.516968%, 89.1922%, 100%)" offset="0.722656"/><stop stop-opacity="1" stop-color="rgb(20.010376%, 89.439392%, 100%)" offset="0.726563"/><stop stop-opacity="1" stop-color="rgb(19.503784%, 89.686584%, 100%)" offset="0.730469"/><stop stop-opacity="1" stop-color="rgb(18.997192%, 89.933777%, 100%)" offset="0.734375"/><stop stop-opacity="1" stop-color="rgb(18.490601%, 90.179443%, 100%)" offset="0.738281"/><stop stop-opacity="1" stop-color="rgb(17.985535%, 90.426636%, 100%)" offset="0.742188"/><stop stop-opacity="1" stop-color="rgb(17.478943%, 90.673828%, 100%)" offset="0.746094"/><stop stop-opacity="1" stop-color="rgb(16.972351%, 90.921021%, 100%)" offset="0.75"/><stop stop-opacity="1" stop-color="rgb(16.465759%, 91.168213%, 100%)" offset="0.753906"/><stop stop-opacity="1" stop-color="rgb(15.959167%, 91.415405%, 100%)" offset="0.757812"/><stop stop-opacity="1" stop-color="rgb(15.452576%, 91.662598%, 100%)" offset="0.761719"/><stop stop-opacity="1" stop-color="rgb(14.94751%, 91.90979%, 100%)" offset="0.765625"/><stop stop-opacity="1" stop-color="rgb(14.440918%, 92.156982%, 100%)" offset="0.769531"/><stop stop-opacity="1" stop-color="rgb(13.934326%, 92.404175%, 100%)" offset="0.773437"/><stop stop-opacity="1" stop-color="rgb(13.427734%, 92.649841%, 100%)" offset="0.777344"/><stop stop-opacity="1" stop-color="rgb(12.921143%, 92.897034%, 100%)" offset="0.78125"/><stop stop-opacity="1" stop-color="rgb(12.414551%, 93.144226%, 100%)" offset="0.785156"/><stop stop-opacity="1" stop-color="rgb(11.907959%, 93.391418%, 100%)" offset="0.789062"/><stop stop-opacity="1" stop-color="rgb(11.401367%, 93.638611%, 100%)" offset="0.792969"/><stop stop-opacity="1" stop-color="rgb(10.896301%, 93.885803%, 100%)" offset="0.796875"/><stop stop-opacity="1" stop-color="rgb(10.389709%, 94.132996%, 100%)" offset="0.800781"/><stop stop-opacity="1" stop-color="rgb(9.883118%, 94.380188%, 100%)" offset="0.804688"/><stop stop-opacity="1" stop-color="rgb(9.376526%, 94.625854%, 100%)" offset="0.808594"/><stop stop-opacity="1" stop-color="rgb(8.869934%, 94.873047%, 100%)" offset="0.8125"/><stop stop-opacity="1" stop-color="rgb(8.363342%, 95.120239%, 100%)" offset="0.816406"/><stop stop-opacity="1" stop-color="rgb(7.858276%, 95.367432%, 100%)" offset="0.820312"/><stop stop-opacity="1" stop-color="rgb(7.351685%, 95.614624%, 100%)" offset="0.824219"/><stop stop-opacity="1" stop-color="rgb(6.845093%, 95.861816%, 100%)" offset="0.828125"/><stop stop-opacity="1" stop-color="rgb(6.338501%, 96.109009%, 100%)" offset="0.832031"/><stop stop-opacity="1" stop-color="rgb(5.831909%, 96.356201%, 100%)" offset="0.835938"/><stop stop-opacity="1" stop-color="rgb(5.325317%, 96.603394%, 100%)" offset="0.839844"/><stop stop-opacity="1" stop-color="rgb(4.820251%, 96.850586%, 100%)" offset="0.84375"/><stop stop-opacity="1" stop-color="rgb(4.359436%, 97.07489%, 100%)" offset="0.847656"/><stop stop-opacity="1" stop-color="rgb(3.898621%, 97.299194%, 100%)" offset="0.851563"/><stop stop-opacity="1" stop-color="rgb(3.898621%, 97.299194%, 100%)" offset="0.859375"/><stop stop-opacity="1" stop-color="rgb(3.898621%, 97.299194%, 100%)" offset="0.875"/><stop stop-opacity="1" stop-color="rgb(3.898621%, 97.299194%, 100%)" offset="1"/></linearGradient><clipPath id="b2b7d8567d"><path d="M 104 7.355469 L 109 7.355469 L 109 13 L 104 13 Z M 104 7.355469 " clip-rule="nonzero"/></clipPath><clipPath id="52defb39c7"><path d="M 104 7.355469 L 116 7.355469 L 116 20 L 104 20 Z M 104 7.355469 " clip-rule="nonzero"/></clipPath><clipPath id="50f49cdcab"><path d="M 118 21 L 123.300781 21 L 123.300781 26.023438 L 118 26.023438 Z M 118 21 " clip-rule="nonzero"/></clipPath><clipPath id="30b71c826c"><path d="M 111 14 L 123.300781 14 L 123.300781 26 L 111 26 Z M 111 14 " clip-rule="nonzero"/></clipPath><clipPath id="a9f182f1cb"><path d="M 104 7.355469 L 123.300781 7.355469 L 123.300781 26 L 104 26 Z M 104 7.355469 " clip-rule="nonzero"/></clipPath></defs><g clip-path="url(#d89952a67f)"><g clip-path="url(#30d5bb378a)"><g clip-path="url(#efcb312285)"><g clip-path="url(#2e90528c78)"><g clip-path="url(#36008bb7f4)"><path fill="url(#d2246e308d)" d="M 84.957031 21.035156 L 117.691406 45.441406 L 142.097656 12.707031 L 109.363281 -11.699219 Z M 84.957031 21.035156 " fill-rule="nonzero"/></g></g></g></g></g><g clip-path="url(#b2b7d8567d)"><path fill="#0f0246" d="M 104.421875 9.625 L 106.3125 7.78125 C 106.453125 7.648438 106.613281 7.546875 106.796875 7.476562 C 106.980469 7.40625 107.167969 7.375 107.363281 7.375 C 107.558594 7.378906 107.746094 7.414062 107.929688 7.488281 C 108.109375 7.5625 108.269531 7.667969 108.40625 7.804688 C 108.546875 7.9375 108.652344 8.09375 108.730469 8.269531 C 108.804688 8.445312 108.84375 8.628906 108.847656 8.820312 C 108.847656 9.011719 108.8125 9.199219 108.742188 9.375 C 108.667969 9.554688 108.566406 9.710938 108.429688 9.847656 L 106.539062 11.691406 C 106.398438 11.824219 106.234375 11.925781 106.054688 11.996094 C 105.871094 12.066406 105.683594 12.101562 105.484375 12.101562 C 105.289062 12.097656 105.101562 12.058594 104.921875 11.984375 C 104.742188 11.914062 104.582031 11.808594 104.441406 11.671875 C 104.304688 11.539062 104.195312 11.382812 104.121094 11.207031 C 104.042969 11.027344 104.003906 10.84375 104.003906 10.652344 C 104 10.460938 104.035156 10.277344 104.109375 10.101562 C 104.179688 9.921875 104.285156 9.765625 104.421875 9.625 Z M 104.421875 9.625 " fill-opacity="1" fill-rule="nonzero"/></g><g clip-path="url(#52defb39c7)"><path fill="#0f0246" d="M 104.558594 16.488281 L 113.433594 7.828125 C 113.578125 7.695312 113.738281 7.59375 113.921875 7.523438 C 114.101562 7.453125 114.292969 7.417969 114.488281 7.421875 C 114.683594 7.421875 114.871094 7.460938 115.054688 7.535156 C 115.234375 7.609375 115.394531 7.714844 115.53125 7.847656 C 115.671875 7.984375 115.777344 8.140625 115.855469 8.316406 C 115.929688 8.492188 115.96875 8.675781 115.96875 8.867188 C 115.972656 9.058594 115.9375 9.242188 115.867188 9.421875 C 115.792969 9.597656 115.6875 9.757812 115.554688 9.894531 L 106.675781 18.554688 C 106.535156 18.699219 106.375 18.808594 106.191406 18.886719 C 106.003906 18.964844 105.8125 19.003906 105.609375 19.003906 C 105.410156 19.007812 105.214844 18.972656 105.027344 18.898438 C 104.84375 18.824219 104.679688 18.714844 104.535156 18.578125 C 104.394531 18.4375 104.285156 18.277344 104.207031 18.097656 C 104.132812 17.914062 104.09375 17.726562 104.097656 17.53125 C 104.101562 17.332031 104.140625 17.144531 104.21875 16.964844 C 104.300781 16.785156 104.414062 16.625 104.558594 16.488281 Z M 104.558594 16.488281 " fill-opacity="1" fill-rule="nonzero"/></g><g clip-path="url(#50f49cdcab)"><path fill="#0f0246" d="M 122.679688 23.75 L 120.789062 25.597656 C 120.648438 25.734375 120.484375 25.835938 120.300781 25.910156 C 120.117188 25.984375 119.925781 26.023438 119.730469 26.023438 C 119.53125 26.023438 119.339844 25.984375 119.15625 25.910156 C 118.972656 25.835938 118.8125 25.734375 118.667969 25.597656 C 118.53125 25.460938 118.421875 25.300781 118.34375 25.121094 C 118.269531 24.941406 118.230469 24.757812 118.230469 24.5625 C 118.230469 24.371094 118.269531 24.183594 118.34375 24.003906 C 118.421875 23.824219 118.53125 23.667969 118.667969 23.53125 L 120.558594 21.683594 C 120.703125 21.554688 120.863281 21.453125 121.046875 21.382812 C 121.226562 21.3125 121.417969 21.277344 121.613281 21.277344 C 121.808594 21.28125 121.996094 21.316406 122.175781 21.390625 C 122.359375 21.464844 122.519531 21.570312 122.65625 21.707031 C 122.796875 21.839844 122.902344 21.996094 122.976562 22.171875 C 123.054688 22.351562 123.09375 22.535156 123.09375 22.726562 C 123.097656 22.917969 123.0625 23.101562 122.988281 23.277344 C 122.917969 23.457031 122.8125 23.613281 122.679688 23.75 Z M 122.679688 23.75 " fill-opacity="1" fill-rule="nonzero"/></g><g clip-path="url(#30b71c826c)"><path fill="#0f0246" d="M 122.722656 16.890625 L 113.84375 25.558594 C 113.703125 25.691406 113.542969 25.792969 113.359375 25.863281 C 113.175781 25.933594 112.988281 25.96875 112.792969 25.964844 C 112.597656 25.964844 112.40625 25.925781 112.226562 25.851562 C 112.046875 25.777344 111.886719 25.671875 111.746094 25.539062 C 111.609375 25.402344 111.503906 25.246094 111.425781 25.070312 C 111.351562 24.894531 111.3125 24.710938 111.308594 24.519531 C 111.308594 24.328125 111.34375 24.144531 111.414062 23.964844 C 111.488281 23.789062 111.589844 23.628906 111.726562 23.492188 L 120.605469 14.824219 C 120.746094 14.691406 120.90625 14.589844 121.089844 14.519531 C 121.269531 14.449219 121.460938 14.414062 121.65625 14.414062 C 121.851562 14.417969 122.039062 14.457031 122.222656 14.527344 C 122.402344 14.601562 122.5625 14.707031 122.699219 14.84375 C 122.839844 14.976562 122.945312 15.132812 123.023438 15.308594 C 123.097656 15.488281 123.136719 15.671875 123.140625 15.863281 C 123.140625 16.054688 123.105469 16.238281 123.035156 16.414062 C 122.960938 16.59375 122.859375 16.75 122.722656 16.890625 Z M 122.722656 16.890625 " fill-opacity="1" fill-rule="nonzero"/></g><g clip-path="url(#a9f182f1cb)"><path fill="#0f0246" d="M 123.1875 9.078125 L 123.1875 11.371094 C 123.1875 11.6875 123.089844 11.96875 122.894531 12.214844 C 122.695312 12.464844 122.441406 12.628906 122.132812 12.707031 C 121.820312 12.785156 121.515625 12.765625 121.21875 12.640625 C 120.921875 12.515625 120.699219 12.316406 120.539062 12.042969 L 106.796875 25.433594 C 106.65625 25.566406 106.492188 25.667969 106.3125 25.738281 C 106.128906 25.808594 105.941406 25.84375 105.742188 25.839844 C 105.546875 25.839844 105.359375 25.800781 105.179688 25.726562 C 105 25.652344 104.839844 25.546875 104.699219 25.410156 C 104.5625 25.277344 104.453125 25.121094 104.378906 24.945312 C 104.300781 24.769531 104.261719 24.585938 104.261719 24.394531 C 104.257812 24.203125 104.292969 24.019531 104.367188 23.839844 C 104.4375 23.664062 104.542969 23.503906 104.679688 23.367188 L 118.351562 10.035156 C 118.039062 9.90625 117.804688 9.699219 117.644531 9.410156 C 117.484375 9.117188 117.4375 8.808594 117.507812 8.488281 C 117.574219 8.164062 117.738281 7.898438 118 7.691406 C 118.261719 7.480469 118.5625 7.378906 118.898438 7.382812 L 121.507812 7.382812 C 121.742188 7.347656 121.976562 7.367188 122.203125 7.445312 C 122.429688 7.519531 122.625 7.640625 122.792969 7.808594 C 122.960938 7.976562 123.078125 8.171875 123.148438 8.398438 C 123.21875 8.621094 123.230469 8.847656 123.1875 9.078125 Z M 123.1875 9.078125 " fill-opacity="1" fill-rule="nonzero"/></g><g fill="#c400ff" fill-opacity="1"><g transform="translate(79.680008, 51.815088)"><g><path d="M 7.085938 -8.582031 L 0.269531 -8.582031 L 0.269531 -6.964844 L 2.746094 -6.964844 L 2.746094 0 L 4.621094 0 L 4.621094 -6.964844 L 7.085938 -6.964844 Z M 7.085938 -8.582031 "/></g></g></g><g fill="#c400ff" fill-opacity="1"><g transform="translate(87.03607, 51.815088)"><g><path d="M 4.328125 -6.4375 C 3.238281 -6.4375 2.613281 -5.824219 2.429688 -4.964844 L 2.429688 -6.375 L 0.636719 -6.375 L 0.636719 0 L 2.429688 0 L 2.429688 -3.398438 C 2.574219 -4.28125 3.152344 -4.832031 4.464844 -4.832031 C 4.550781 -4.832031 4.636719 -4.832031 4.878906 -4.820312 L 4.878906 -6.390625 C 4.636719 -6.4375 4.464844 -6.4375 4.328125 -6.4375 Z M 4.328125 -6.4375 "/></g></g></g><g fill="#c400ff" fill-opacity="1"><g transform="translate(92.185313, 51.815088)"><g><path d="M 6.523438 -2.957031 C 6.523438 -5.53125 5.066406 -6.4375 3.484375 -6.4375 C 2.011719 -6.4375 0.332031 -5.53125 0.332031 -3.152344 C 0.332031 -0.808594 2.023438 0.0859375 3.46875 0.0859375 C 5.015625 0.0859375 5.984375 -0.539062 6.351562 -1.828125 L 4.792969 -1.828125 C 4.609375 -1.460938 4.242188 -1.238281 3.570312 -1.238281 C 2.699219 -1.238281 2.195312 -1.644531 2.058594 -2.625 L 6.511719 -2.625 C 6.523438 -2.734375 6.523438 -2.832031 6.523438 -2.957031 Z M 2.074219 -3.726562 C 2.207031 -4.660156 2.699219 -5.113281 3.484375 -5.113281 C 4.328125 -5.113281 4.792969 -4.5625 4.820312 -3.726562 Z M 2.074219 -3.726562 "/></g></g></g><g fill="#c400ff" fill-opacity="1"><g transform="translate(99.03871, 51.815088)"><g><path d="M 4.476562 -6.4375 C 3.296875 -6.4375 2.613281 -5.554688 2.429688 -5.113281 L 2.429688 -6.375 L 0.636719 -6.375 L 0.636719 0 L 2.429688 0 L 2.429688 -3.765625 C 2.488281 -4.167969 2.917969 -4.953125 3.8125 -4.953125 C 4.453125 -4.953125 4.953125 -4.621094 4.953125 -3.738281 L 4.953125 0 L 6.746094 0 L 6.746094 -3.839844 C 6.746094 -5.777344 5.789062 -6.4375 4.476562 -6.4375 Z M 4.476562 -6.4375 "/></g></g></g><g fill="#c400ff" fill-opacity="1"><g transform="translate(106.419291, 51.815088)"><g><path d="M 3.140625 -6.4375 C 1.972656 -6.4375 0.332031 -5.53125 0.332031 -3.1875 C 0.332031 -0.796875 1.988281 0.0859375 3.175781 0.0859375 C 4.402344 0.0859375 4.878906 -0.820312 4.878906 -0.96875 L 4.878906 0 L 6.671875 0 L 6.671875 -8.65625 L 4.878906 -8.65625 L 4.878906 -5.566406 C 4.671875 -5.933594 4.035156 -6.4375 3.140625 -6.4375 Z M 3.53125 -1.359375 C 2.710938 -1.359375 2.058594 -1.914062 2.058594 -3.1875 C 2.058594 -4.453125 2.710938 -4.992188 3.53125 -4.992188 C 4.316406 -4.992188 4.953125 -4.414062 4.953125 -3.1875 C 4.953125 -1.949219 4.316406 -1.359375 3.53125 -1.359375 Z M 3.53125 -1.359375 "/></g></g></g><g fill="#c400ff" fill-opacity="1"><g transform="translate(113.726313, 51.815088)"><g><path d="M 7.085938 -8.582031 L 0.269531 -8.582031 L 0.269531 -6.964844 L 2.746094 -6.964844 L 2.746094 0 L 4.621094 0 L 4.621094 -6.964844 L 7.085938 -6.964844 Z M 7.085938 -8.582031 "/></g></g></g><g fill="#c400ff" fill-opacity="1"><g transform="translate(121.082375, 51.815088)"><g><path d="M 4.328125 -6.4375 C 3.238281 -6.4375 2.613281 -5.824219 2.429688 -4.964844 L 2.429688 -6.375 L 0.636719 -6.375 L 0.636719 0 L 2.429688 0 L 2.429688 -3.398438 C 2.574219 -4.28125 3.152344 -4.832031 4.464844 -4.832031 C 4.550781 -4.832031 4.636719 -4.832031 4.878906 -4.820312 L 4.878906 -6.390625 C 4.636719 -6.4375 4.464844 -6.4375 4.328125 -6.4375 Z M 4.328125 -6.4375 "/></g></g></g><g fill="#c400ff" fill-opacity="1"><g transform="translate(126.231614, 51.815088)"><g><path d="M 3.496094 -6.4375 C 2.144531 -6.4375 0.332031 -5.542969 0.332031 -3.164062 C 0.332031 -0.808594 2.144531 0.0859375 3.496094 0.0859375 C 4.84375 0.0859375 6.660156 -0.808594 6.660156 -3.164062 C 6.660156 -5.542969 4.84375 -6.4375 3.496094 -6.4375 Z M 4.941406 -3.164062 C 4.941406 -1.914062 4.253906 -1.359375 3.496094 -1.359375 C 2.734375 -1.359375 2.046875 -1.914062 2.046875 -3.164062 C 2.046875 -4.476562 2.734375 -4.992188 3.496094 -4.992188 C 4.253906 -4.992188 4.941406 -4.476562 4.941406 -3.164062 Z M 4.941406 -3.164062 "/></g></g></g><g fill="#c400ff" fill-opacity="1"><g transform="translate(133.219871, 51.815088)"><g><path d="M 4.636719 0 L 7.085938 -6.375 L 5.296875 -6.375 L 3.652344 -1.789062 L 2 -6.375 L 0.207031 -6.375 L 2.660156 0 Z M 4.636719 0 "/></g></g></g><g fill="#c400ff" fill-opacity="1"><g transform="translate(140.514631, 51.815088)"><g><path d="M 6.523438 -2.957031 C 6.523438 -5.53125 5.066406 -6.4375 3.484375 -6.4375 C 2.011719 -6.4375 0.332031 -5.53125 0.332031 -3.152344 C 0.332031 -0.808594 2.023438 0.0859375 3.46875 0.0859375 C 5.015625 0.0859375 5.984375 -0.539062 6.351562 -1.828125 L 4.792969 -1.828125 C 4.609375 -1.460938 4.242188 -1.238281 3.570312 -1.238281 C 2.699219 -1.238281 2.195312 -1.644531 2.058594 -2.625 L 6.511719 -2.625 C 6.523438 -2.734375 6.523438 -2.832031 6.523438 -2.957031 Z M 2.074219 -3.726562 C 2.207031 -4.660156 2.699219 -5.113281 3.484375 -5.113281 C 4.328125 -5.113281 4.792969 -4.5625 4.820312 -3.726562 Z M 2.074219 -3.726562 "/></g></g></g></svg>